<svg width="926" height="217" viewBox="0 0 926 217" fill="none" xmlns="http://www.w3.org/2000/svg">
<path d="M445.82 45.6703C422.647 45.6703 409.209 58.7315 403.024 74.0364H402.795C403.024 69.2686 401.574 54.4847 399.894 46.4316L385.082 47.1928V216.788H406.155V146.073C413.79 158.373 426.961 167.148 444.636 167.148C477.658 167.148 499.609 143.028 499.609 106.649C499.609 70.2703 477.62 45.6703 445.82 45.6703ZM443.414 148.557C417.378 148.557 406.155 126.722 406.155 108.933V104.165C406.155 86.5767 418.104 64.3006 442.04 64.3006C464.259 64.3006 478.116 81.3683 478.116 106.689C478.116 132.01 464.526 148.597 443.453 148.597L443.414 148.557Z" fill="#8E8E8E" fill-opacity="0.03"/>
<path d="M573.322 45.8823C550.149 45.8823 536.749 58.9435 530.526 74.2483H530.297C530.526 69.4806 529.114 54.6966 527.434 46.6435L512.622 47.4047V217H533.619V146.285C541.254 158.585 554.425 167.359 572.138 167.359C605.122 167.359 627.073 143.24 627.073 106.861C627.073 70.4822 605.084 45.8823 573.283 45.8823H573.322ZM570.955 148.769C544.919 148.769 533.619 126.934 533.619 109.145V104.377C533.619 86.7887 545.568 64.5125 569.504 64.5125C591.761 64.5125 605.619 81.5802 605.619 106.901C605.619 132.222 591.99 148.809 570.955 148.809V148.769Z" fill="#8E8E8E" fill-opacity="0.03"/>
<path d="M781.467 0.200462L733.632 110.139C730.769 116.91 725.73 128.929 724.584 133.216H724.088C722.638 128.929 718.095 116.91 715.231 110.139L667.397 0.200462H643.728V165.829H665.488L664.992 63.984C664.992 56.9726 664.266 43.671 664.037 42.389L664.992 42.1486C665.221 43.4306 666.672 51.2033 670.26 59.2163L717.56 166.35H730.96L776.618 60.9791C778.565 56.6922 781.887 44.873 782.612 42.1486L783.566 42.389C783.337 43.671 782.612 56.9726 782.612 63.984L782.116 165.829H803.838V0.200462H781.39H781.467Z" fill="#8E8E8E" fill-opacity="0.03"/>
<path d="M913.096 133.178C908.057 140.189 898.246 148.723 881.067 148.723C862.666 148.723 849.762 139.188 844.723 123.362L866.484 123.603C904.469 123.843 925.313 110.541 925.313 87.2235C925.313 62.3832 907.599 45.8363 876.753 45.8363C843.998 45.8363 820.558 70.1558 820.558 106.815C820.558 143.475 843.311 167.313 879.387 167.313C898.742 167.313 915.502 160.022 926 145.478L913.135 133.178H913.096ZM842.089 106.575C842.089 79.4909 857.856 64.4665 877.707 64.4665C893.741 64.4665 904.469 73.0004 904.469 85.7411C904.469 100.565 894.161 108.097 864.308 107.857L842.089 107.617V106.615V106.575Z" fill="#8E8E8E" fill-opacity="0.03"/>
<path d="M224.514 0H202.792V165.629H224.514V0Z" fill="#8E8E8E" fill-opacity="0.03"/>
<path d="M112.271 108.211C84.0585 108.211 57.4116 104.244 37.2165 97.0726C6.7521 86.2551 0.376709 71.5512 0.376709 61.1343H21.4499C21.4499 68.3861 53.2886 86.0948 112.309 86.0948C171.329 86.0948 203.168 68.3861 203.168 61.1343H224.241C224.241 71.5512 217.865 86.2551 187.401 97.0726C167.206 104.244 140.521 108.211 112.347 108.211H112.271Z" fill="#8E8E8E" fill-opacity="0.03"/>
<path d="M21.7985 0H0V165.629H21.7985V0Z" fill="#8E8E8E" fill-opacity="0.03"/>
<path d="M343.58 47.1928C341.9 55.2058 340.45 69.2286 340.679 74.0364H340.45C334.494 57.9703 320.407 45.6703 298.876 45.6703C265.892 45.6703 243.903 69.7494 243.903 106.128C243.903 142.508 265.93 167.148 297.693 167.148C317.773 167.148 331.173 157.091 338.35 143.028H338.846V147.275C338.846 147.716 338.846 148.117 338.884 148.557C339.228 157.933 343.809 163.341 350.604 165.625H358.469V47.1928H343.656H343.58ZM337.357 108.653C337.357 126.241 325.408 148.517 301.472 148.517C279.254 148.517 265.396 131.45 265.396 106.088C265.396 80.7272 278.986 64.2205 300.059 64.2205C326.096 64.2205 337.319 86.0158 337.319 103.845V108.613L337.357 108.653Z" fill="#8E8E8E" fill-opacity="0.03"/>
<path d="M358.394 133.053H338.848V165.626H358.394V133.053Z" fill="#8E8E8E" fill-opacity="0.03"/>
</svg>
